<svg id="bae86f2e-3fbf-47c9-8108-04d6210625e7" data-name="Objects" xmlns="http://www.w3.org/2000/svg" width="406.57" height="214.31" viewBox="0 0 406.57 214.31"><path d="M245.22,143.87A155.36,155.36,0,0,1,400.54,299.2H90c0-85.76,69.45-155.33,155.21-155.33Z" transform="translate(-46.78 -143.87)" style="fill:#000035;fill-rule:evenodd"/><path d="M121.54,224.43a74.8,74.8,0,0,1,74.89,74.77H46.78a74.7,74.7,0,0,1,74.76-74.77Z" transform="translate(-46.78 -143.87)" style="fill:#000035;fill-rule:evenodd"/><path d="M378.45,224.43a74.8,74.8,0,0,1,74.89,74.77H303.69a74.77,74.77,0,0,1,74.76-74.77Z" transform="translate(-46.78 -143.87)" style="fill:#000035;fill-rule:evenodd"/><path d="M309.36,169.27a2.6,2.6,0,1,1-2.6,2.59,2.62,2.62,0,0,1,2.6-2.59Z" transform="translate(-46.78 -143.87)" style="fill:#fff;fill-rule:evenodd"/><path d="M358.37,211.43a2.6,2.6,0,1,1-2.59,2.6,2.63,2.63,0,0,1,2.59-2.6Z" transform="translate(-46.78 -143.87)" style="fill:#fff;fill-rule:evenodd"/><path d="M301.32,219.7a2.62,2.62,0,0,1,2.6,2.6,2.6,2.6,0,0,1-5.2,0,2.63,2.63,0,0,1,2.6-2.6Z" transform="translate(-46.78 -143.87)" style="fill:#fff;fill-rule:evenodd"/><path d="M182.73,164.89a2.55,2.55,0,0,1,2.6,2.6,2.6,2.6,0,0,1-5.2,0,2.55,2.55,0,0,1,2.6-2.6Z" transform="translate(-46.78 -143.87)" style="fill:#fff;fill-rule:evenodd"/><path d="M128.4,253.48a2.54,2.54,0,1,1-2.6,2.49,2.53,2.53,0,0,1,2.6-2.49Z" transform="translate(-46.78 -143.87)" style="fill:#fff;fill-rule:evenodd"/><path d="M431.85,260.22a2.45,2.45,0,0,1,2.59,2.48,2.54,2.54,0,1,1-5.08,0,2.43,2.43,0,0,1,2.49-2.48Z" transform="translate(-46.78 -143.87)" style="fill:#fff;fill-rule:evenodd"/><path d="M420.15,252a1.3,1.3,0,1,1-1.3,1.3,1.31,1.31,0,0,1,1.3-1.3Z" transform="translate(-46.78 -143.87)" style="fill:#fff;fill-rule:evenodd"/><path d="M418.85,280.42a1.3,1.3,0,1,1-1.3,1.3,1.31,1.31,0,0,1,1.3-1.3Z" transform="translate(-46.78 -143.87)" style="fill:#fff;fill-rule:evenodd"/><path d="M444.25,279.94a1.3,1.3,0,1,1-1.3,1.3,1.31,1.31,0,0,1,1.3-1.3Z" transform="translate(-46.78 -143.87)" style="fill:#fff;fill-rule:evenodd"/><path d="M346.92,226.79a1.3,1.3,0,1,1-1.3,1.3,1.31,1.31,0,0,1,1.3-1.3Z" transform="translate(-46.78 -143.87)" style="fill:#fff;fill-rule:evenodd"/><path d="M345.62,200.92a1.3,1.3,0,1,1-1.3,1.3,1.31,1.31,0,0,1,1.3-1.3Z" transform="translate(-46.78 -143.87)" style="fill:#fff;fill-rule:evenodd"/><path d="M284,164.19a1.24,1.24,0,0,1,1.3,1.3,1.3,1.3,0,0,1-2.6,0,1.24,1.24,0,0,1,1.3-1.3Z" transform="translate(-46.78 -143.87)" style="fill:#fff;fill-rule:evenodd"/><path d="M180.84,208.72a1.3,1.3,0,1,1-1.3,1.3,1.31,1.31,0,0,1,1.3-1.3Z" transform="translate(-46.78 -143.87)" style="fill:#fff;fill-rule:evenodd"/><path d="M164.78,183.32a1.3,1.3,0,1,1-1.3,1.3,1.31,1.31,0,0,1,1.3-1.3Z" transform="translate(-46.78 -143.87)" style="fill:#fff;fill-rule:evenodd"/><path d="M82,253.25a1.3,1.3,0,1,1-1.29,1.3,1.31,1.31,0,0,1,1.29-1.3Z" transform="translate(-46.78 -143.87)" style="fill:#fff;fill-rule:evenodd"/><path d="M135.84,280.18a1.3,1.3,0,1,1-1.3,1.3,1.31,1.31,0,0,1,1.3-1.3Z" transform="translate(-46.78 -143.87)" style="fill:#fff;fill-rule:evenodd"/><path d="M150.25,263.64a1.19,1.19,0,0,1,1.3,1.3,1.24,1.24,0,0,1-1.3,1.3,1.21,1.21,0,0,1-1.18-1.3,1.15,1.15,0,0,1,1.18-1.3Z" transform="translate(-46.78 -143.87)" style="fill:#fff;fill-rule:evenodd"/><path d="M248.64,240.14l17.6,14.64L284,269.55A17.24,17.24,0,0,1,273,300H202a17.26,17.26,0,0,1-9.8-31.53l16.54-13.71L226.44,240a17.29,17.29,0,0,1,22.2.12Z" transform="translate(-46.78 -143.87)" style="fill:#666"/><path d="M271.56,259.15l12.4,10.4h-93.2l1.42-1.06,11.22-9.34Z" transform="translate(-46.78 -143.87)" style="fill:#333;fill-rule:evenodd"/><path d="M256.32,243.8l-2.6,3.19-6.38-5.32,2.6-3.19Zm-8.62-7-2.13,3.54h-.12v-.11h-.12l-.11-.12h-.12L245,240h0l-.12-.12h-.12l-.11-.12h-.12l-.12-.12h-.24v-.11h-.23v-.12h-.12l-.12-.12h-.24l-.11-.12h-.24v-.12h-.24l-.11-.11h-.24v-.12h-.35l-.12-.12h-.24l-.12-.12h-.35v-.12h-.47v-.11h-.48l-.11-.12h-.71v-.12h-.83L239,234h.94l.12.12h.59l.12.12h.59l.12.12h.35l.12.12h.35l.12.12h.36l.11.11h.24l.12.12h.35v.12h.24l.12.12h.23l.12.12h.24l.12.11h.11l.12.12h.24l.12.12h.11l.12.12h.12l.12.12h.12l.11.11h.24V236h.12l.12.12h.12l.11.12h.12l.12.12H247l.12.12h0l.11.11h.12l.12.12h.12l.12.12Zm-13.35-2.72.71,4.14h-.36v.12h-.47l-.12.11h-.47v.12h-.47v.12h-.36l-.11.12h-.24V239h-.24l-.12.11h-.23v.12h-.24l-.12.12h-.11l-.12.12H231l-.12.12h-.11l-.12.11h-.12v.12h-.24v.12h-.23V240H230l-.12.12h-.12l-.12.12h-.11v.11h-.12l-.12.12h-.12v.12H229l-.11.12h-.12v.12h-.12l-.12.11h-.12v.12h0L226,237.77h0l.12-.11h0l.12-.12.12-.12h.12v-.12h.11l.12-.12h.12v-.11h.12L227,237h.11l.12-.12h0l.12-.12h.12l.12-.12h0l.11-.11H228l.12-.12h0l.12-.12h.12l.11-.12h.12l.12-.12h.12l.12-.12H229v-.11h.24l.12-.12h.23v-.12h.12l.12-.12h.24l.11-.12h.12l.12-.11h.24l.12-.12H231l.12-.12h.24v-.12h.35l.12-.12h.23l.12-.11h.36l.12-.12h.35l.12-.12h.35l.12-.12h.59l.12-.12Zm-11.69,6.38,2.59,3.19L218.88,249l-2.6-3.19Zm-9.57,7.92,2.6,3.18L210,256.32l-.71.59-2.6-3.19.71-.59Zm-9.57,7.91,2.6,3.19-6.26,5.31-2.72-3.19Zm-9.57,8,2.72,3.19-3.19,2.6h-.12v.12h-.12l-.11.12H193v.11h-.12v.12h-.12l-.12.12h-.12v.12h-.11V271h-.12v.11h-.12l-.12.12h-.12v.12h-.11v.12h-.12v.12h-.12v.11h-.12v.12h-.12v.12h-.11V272h-.12v.12H191v.12h-.12v.11h-.12v.12h-.12v.12h-.11l-3.07-2.72h0l.11-.11h0l.12-.12h0l.12-.12h0l.12-.12h0v-.12h.12v-.12h.11l.12-.11h0V269h.12v-.12h.12l.12-.12h0v-.12h.12l.11-.11h0l.12-.12h0l.12-.12h.12v-.12h0l.12-.12h.11v-.11h.12l.12-.12h0l.12-.12h.12v-.12h.11v-.12h.12v-.12h.12l.12-.11h.12v-.12h.11V267h.12l.12-.12h0Zm-9.09,9.33,3.66,2h0l-.12.12h0v.12h-.12v.12h0v.11h-.12v.12h0v.12h0l-.11.12h0v.12h0l-.12.11h0v.12h0V277h-.12v.12h0v.12h0l-.12.11h0v.12h0v.12h0l-.12.12h0v.12h0v.12h-.11v.11h0v.12h0v.12h0l-.12.12h0v.12h0v.11h0l-.12.12h0v.12h0V279h0v.12h0l-.12.11h0v.12h0v.12h0v.12h0v.12h0l-.12.12h0v.11h0v.12h0v.12h0v.12h0l-.11.12h0v.11h0v.12h0v.12h0v.12h0V281h0v.11h0v.12h0l-.12.12h0v.12h0v.12h0v.12h0v.11h0v.24h0v.12h0v.12h0v.11h0v.12h0v.12h-4.14v-.12h0v-.23h0v-.24h0V282h0v-.23h0v-.24h0v-.24h0V281h.12v-.24h0v-.12h0v-.23h0v-.24h0v-.12l.12-.12h0v-.11h0v-.24h0v-.24h0l.12-.12h0V279h0v-.24h0l.12-.12h0v-.23h0v-.12h0v-.12l.11-.12h0v-.11h0v-.24h.12v-.24h0v-.12h0l.12-.11v-.12h0V277h0l.12-.12v-.12h0v-.11h0v-.12h.12v-.24h0l.11-.12h0v-.23h0l.12-.12h0v-.12h0l.12-.12v-.12h0v-.11h0l.12-.12h0V275h.12v-.12h0v-.11h.11v-.24h0l.12-.12h0v-.12h.12v-.11h0V274l.12-.12h0v-.12h0Zm-1.77,13.59,4-.95h.12v.36h0l.12.11V287h0l.12.12v.23h0v.12l.11.12v.12h0v.12l.12.12v.11h0l.12.12v.24h0l.12.12v.11h0l.12.12V289h.11v.23h.12v.24l.12.12h0v.12l.12.12h0V290l.12.12h0l.12.12v.12h0l.11.12v.11H189v.24h.12v.12l.12.12h0l.12.11v.12h0l.11.12v.12h.12v.12h.12v.12l.12.11h0V292l.12.12h0l.11.12h0l.12.12v.11h.12v.12h.12v.12h0l-3.07,2.72h0l-.12-.12v-.12h-.12l-.12-.12v-.12l-.11-.11h-.12v-.12l-.12-.12v-.12l-.12-.12h-.12v-.11l-.12-.12V294h-.11v-.12l-.12-.12-.12-.11v-.12l-.12-.12h0l-.12-.12v-.12l-.11-.12v-.11l-.12-.12h0l-.12-.12v-.12l-.12-.12v-.11l-.12-.12h0l-.11-.12V292l-.12-.12v-.11l-.12-.12v-.12l-.12-.12h0l-.12-.12v-.23l-.12-.12v-.12l-.11-.12v-.23l-.12-.12v-.12H184V290l-.12-.11v-.24l-.12-.12v-.12l-.11-.12V289l-.12-.12v-.35l-.12-.12v-.24l-.12-.12h0v-.23l-.12-.12v-.36Zm7.67,11.22,2.37-3.31h.11v.12h.24v.12h.12l.12.12h0l.11.11H194l.12.12h.12v.12h.23V296h.24v.12h.12l.12.11H195l.11.12h.12l.12.12h.12l.12.12h.11l.12.12h.24v.11h.23l.12.12h.24v.12H197v.12h.36v.12h.35v.11h.47v.12h.48l.12.12h.47l.12.12h.47l-.59,4.13H199l-.12-.11h-.59l-.12-.12h-.47l-.12-.12h-.35l-.12-.12h-.35l-.12-.12h-.24l-.12-.12h-.23l-.12-.11h-.35l-.12-.12h-.24l-.12-.12H195v-.12h-.24l-.12-.12h-.24l-.11-.11h-.12l-.12-.12h-.24l-.11-.12h0l-.12-.12h-.12l-.12-.12h-.23l-.12-.11h-.12l-.12-.12h0l-.12-.12h-.12l-.11-.12h-.12l-.12-.12h-.12v-.12h-.12l-.11-.11h-.12l-.12-.12h-.12V299h-.12l-.11-.12h-.12l-.12-.12-.12-.11h0Zm13,3.54V297.9H212V302Zm12.4,0V297.9h8.27V302Zm12.4,0V297.9h8.27V302Zm12.4,0V297.9h8.39V302Zm12.52,0V297.9h8.27V302Zm12.41,0V297.9H273V302h.12l1.07-1.06.94-1v2h-9.21ZM271,297.9h2.95l.24,2m.94,0V300m0-.11H273m5.79,1.18-1.18-3.9h.12v-.12h.35V297h.36v-.12h.23v-.11h.24l.12-.12h.23v-.12h.24l.12-.12h.12v-.12h.23v-.11h.24V296h.24v-.12h.11l.12-.12h.12l.12-.12H281v-.11h.23v-.12h.12v-.12h.24v-.12h.12v-.12h.11l.12-.12h.12v-.11h.12v-.12h.12l.11-.12h0l.12-.12h.12v-.12h.12v-.11h.12l.11-.12h0l.12-.12h0l.12-.12h.12v-.12h.12v-.11h.11v-.12h.12v-.12h0l3,2.95h0l-.12.12h-.12v.12h0l-.12.12h-.12v.11h-.11V297H286v.12h-.12v.12h-.12v.12h-.12l-.12.11h0l-.11.12h0l-.12.12h-.12v.12H285l-.12.12h0V298h-.11l-.12.11h-.12v.12h-.12l-.12.12h0l-.11.12h-.12v.12H284l-.12.11h-.12l-.12.12h0l-.11.12h-.12v.12h-.24v.12H283l-.11.11h-.12v.12h-.24v.12h-.23v.12h-.12v.12H282v.12h-.23V300h-.24v.12h-.24v.12H281l-.12.12h-.12l-.12.12h-.23l-.12.11h-.24v.12h-.23l-.12.12h-.24V301h-.35v.12h-.36Zm10.75-8.39L286,290.57h0l.12-.11v-.12h0l.11-.12v-.12l.12-.12h0v-.11l.12-.12h0v-.12l.12-.12h0l.12-.12v-.23h.11v-.24h.12v-.24l.12-.11h0v-.24l.12-.12h0v-.12l.12-.11h0v-.24l.11-.12h0v-.24l.12-.11h0v-.36h.12v-.35h0l.12-.12v-.24h0v-.11l.12-.12v-.12h0v-.36h0l.12-.11V285h0v-.35h.11v-.36h0v-.47h0v-.12h0l4.14.24h0v.94l-.12.12v.71l-.12.12v.59l-.12.12v.35h0l-.11.12v.35l-.12.12v.36l-.12.12v.35l-.12.12v.23l-.12.12V289l-.12.12v.11h0l-.11.12v.24l-.12.12V290l-.12.12v.12l-.12.12v.23l-.12.12v.12h-.11v.24l-.12.11v.12l-.12.12v.12l-.12.12v.12l-.12.11V292h-.11v.12l-.12.12v.12l-.12.11v.12l-.12.12ZM292,279.35l-4.13.71h0v-.35h0v-.12l-.12-.12v-.12h0V279h-.12v-.36h0l-.12-.11v-.24h0l-.12-.12v-.23h0v-.12l-.11-.12v-.12h0l-.12-.12v-.12h0v-.11l-.12-.12V277h0l-.12-.12v-.12h0v-.11l-.12-.12v-.12h0l-.11-.12v-.12h0l-.12-.11v-.12h0l-.12-.12v-.12l-.12-.12h0v-.12l-.12-.11h0v-.12l-.11-.12h0L286,275v-.12h0l-.12-.11v-.12h-.12v-.12l-.12-.12h0v-.12l-.12-.11h0l-.11-.12v-.12h-.12v-.12l-.12-.12h0l-.12-.12h0v-.11l3.19-2.48h.12v.11l.12.12.12.12h0l.11.12v.12l.12.11.12.12v.12H289V272l.12.12v.12l.11.11v.12h.12v.12l.12.12.12.12V273l.12.12v.12h.12v.24l.11.11v.12l.12.12v.12l.12.12h0l.12.12v.11l.12.12v.24l.11.12v.11l.12.12v.12h0l.12.12v.12l.12.11v.24l.12.12v.24l.11.11v.24h.12v.24l.12.11v.36l.12.12v.23l.12.12v.36l.12.11v.36l.11.12h0v.35l.12.12v.35Zm-7-11.69-2.6,3.19-6.37-5.32,2.59-3.19Zm-9.57-7.92-2.59,3.19-6.38-5.31,2.6-3.19Zm-9.56-8-2.6,3.19-6.38-5.2,2.6-3.18Z" transform="translate(-46.78 -143.87)" style="fill:#ccc;fill-rule:evenodd"/><path d="M200.09,259.15h5.79l.24.36-6.26,5.31-2.72-3.19Zm68.28,0h6.49l.59.59-2.59,3.19Zm15.12,10.4h-2.72l-4.72-4,2.59-3.19,6.38,5.32Zm-89.3,0h-6.38l.12-.12h0v-.12h.12v-.12h.11l.12-.11h0V269h.12v-.12h.12l.12-.12h0v-.12h.12l.11-.11h0l.12-.12h0l.12-.12h.12v-.12h0l.12-.12h.11v-.11h.12l.12-.12h0l.12-.12h.12v-.12h.11v-.12h.12v-.12h.12l.12-.11h.12v-.12h.11V267h.12l.12-.12h0l3.07-2.48,2.72,3.19Z" transform="translate(-46.78 -143.87)" style="fill:#666"/><path d="M267.07,294.12H273A11.34,11.34,0,0,0,280.18,274l-35.32-29.41h0a11.41,11.41,0,0,0-14.65-.12l-34.49,28.7-.23.24A11.31,11.31,0,0,0,202,294.12Z" transform="translate(-46.78 -143.87)" style="fill:#333;fill-rule:evenodd"/><polygon points="227.97 125.68 215.57 115.28 165.84 115.28 153.32 125.68 227.97 125.68" style="fill-rule:evenodd"/><path d="M237.42,241.91a11.07,11.07,0,0,0-7.21,2.6l-34.49,28.7-.23.24A11.31,11.31,0,0,0,202,294.12h35.44Z" transform="translate(-46.78 -143.87)" style="fill:#1a1a1a;fill-rule:evenodd"/><polygon points="165.84 115.28 153.32 125.68 190.65 125.68 190.65 115.28 165.84 115.28" style="fill-rule:evenodd"/><path d="M271.2,271.67a10.4,10.4,0,1,1,0,20.79,10.4,10.4,0,0,1,0-20.79Z" transform="translate(-46.78 -143.87)" style="fill:#999;fill-rule:evenodd"/><path d="M203.64,271.67a10.4,10.4,0,1,1-10.4,10.4,10.38,10.38,0,0,1,10.4-10.4Z" transform="translate(-46.78 -143.87)" style="fill:#999;fill-rule:evenodd"/><path d="M271.2,271.67a10.42,10.42,0,0,1,10.4,10.4v.12H260.93v-.12a10.38,10.38,0,0,1,10.27-10.4Z" transform="translate(-46.78 -143.87)" style="fill:#ccc;fill-rule:evenodd"/><path d="M203.64,271.67a10.38,10.38,0,0,1,10.27,10.4v.12H193.24v-.12a10.42,10.42,0,0,1,10.4-10.4Z" transform="translate(-46.78 -143.87)" style="fill:#ccc;fill-rule:evenodd"/><path d="M237.42,244.15A10.34,10.34,0,1,1,227,254.43a10.38,10.38,0,0,1,10.39-10.28Z" transform="translate(-46.78 -143.87)" style="fill:#ccc;fill-rule:evenodd"/><path d="M237.42,155.56h0A39.65,39.65,0,0,1,277,195.13v57.76H197.85V195.13a39.65,39.65,0,0,1,39.57-39.57Z" transform="translate(-46.78 -143.87)" style="fill:#ddff63;fill-rule:evenodd"/><path d="M271.56,252.89H197.85V195.13a39.72,39.72,0,0,1,35-39.33,39.72,39.72,0,0,1,38.75,39.57Z" transform="translate(-46.78 -143.87)" style="fill:#d5ff3f;fill-rule:evenodd"/><path d="M212.38,223.6c9.57-19.37,40.75-19.37,50.32,0Z" transform="translate(-46.78 -143.87)" style="fill:#2ebd33;fill-rule:evenodd"/><path d="M195.13,227.14h84.58a9.07,9.07,0,0,1,9.09,9v20.2a9.17,9.17,0,0,1-9.09,9.09H195.13a9.17,9.17,0,0,1-9.09-9.09v-20.2a9.07,9.07,0,0,1,9.09-9Z" transform="translate(-46.78 -143.87)" style="fill:#b3b3b3;fill-rule:evenodd"/><path d="M195.13,227.14h84.58a9.07,9.07,0,0,1,9.09,9v11.34a11.89,11.89,0,0,1-9,3.78H195a11.9,11.9,0,0,1-9-3.78V236.12a9.07,9.07,0,0,1,9.09-9Z" transform="translate(-46.78 -143.87)" style="fill:#ccc;fill-rule:evenodd"/><path d="M184.86,235.53h6a2.75,2.75,0,0,1,2.72,2.72v15.94a2.67,2.67,0,0,1-2.72,2.72h-6a2.65,2.65,0,0,1-2.6-2.72V238.25a2.73,2.73,0,0,1,2.6-2.72Z" transform="translate(-46.78 -143.87)" style="fill:#666"/><path d="M183.56,235.53h2.95a1.44,1.44,0,0,1,1.42,1.42v18.54a1.37,1.37,0,0,1-1.42,1.42h-2.95a1.34,1.34,0,0,1-1.3-1.42V237a1.42,1.42,0,0,1,1.3-1.42Z" transform="translate(-46.78 -143.87)" style="fill:#333;fill-rule:evenodd"/><path d="M182.14,249h2a1,1,0,0,1,.94.94v3.9a.91.91,0,0,1-.94.83h-2a.84.84,0,0,1-.94-.83v-3.9a.93.93,0,0,1,.94-.94Z" transform="translate(-46.78 -143.87)" style="fill:#666"/><path d="M182.14,237.77h2a.91.91,0,0,1,.94.83v3.9a.93.93,0,0,1-.94.94h-2a.86.86,0,0,1-.94-.94v-3.9a.84.84,0,0,1,.94-.83Z" transform="translate(-46.78 -143.87)" style="fill:#666"/><path d="M197.14,223.6H277.7a.89.89,0,0,1,.83.83v1.89a.81.81,0,0,1-.83.82H197.14a.81.81,0,0,1-.83-.82v-1.89a.89.89,0,0,1,.83-.83Z" transform="translate(-46.78 -143.87)" style="fill:#b3b3b3;fill-rule:evenodd"/><path d="M211,182.85c-1.53,8.39-1.53,22.68,1.3,26.1,9.45,11.82,41,11.82,50.56,0,2.71-3.42,2.71-17.71,1.18-26.1-2-10.4-51-10.4-53,0Z" transform="translate(-46.78 -143.87)" style="fill:#3c3;fill-rule:evenodd"/><path d="M211,182.85c-1.53,8.39-1.53,22.68,1.3,26.1,4.73,5.91,15,8.86,25.28,8.86V175.05c-12.76,0-25.52,2.6-26.58,7.8Z" transform="translate(-46.78 -143.87)" style="fill:#5fde35;fill-rule:evenodd"/><path d="M228.92,193.36a2.37,2.37,0,0,1,0,4.73,2.37,2.37,0,1,1,0-4.73Z" transform="translate(-46.78 -143.87)" style="fill-rule:evenodd"/><path d="M246.16,193.36a2.37,2.37,0,0,1,0,4.73,2.37,2.37,0,0,1,0-4.73Z" transform="translate(-46.78 -143.87)" style="fill-rule:evenodd"/><path d="M216.75,201.28a5.32,5.32,0,0,1,0,10.63,5.32,5.32,0,1,1,0-10.63Z" transform="translate(-46.78 -143.87)" style="fill:#ff8b95;fill-rule:evenodd"/><path d="M258.33,201.28a5.32,5.32,0,0,1,0,10.63,5.32,5.32,0,1,1,0-10.63Z" transform="translate(-46.78 -143.87)" style="fill:#ff8b95;fill-rule:evenodd"/><path d="M240,204.11a5.54,5.54,0,0,1,5.55,5.55h-11a5.52,5.52,0,0,1,5.43-5.55Z" transform="translate(-46.78 -143.87)" style="fill-rule:evenodd"/><path d="M226.2,165.72a2.52,2.52,0,0,1,2.48,2.6,2.48,2.48,0,0,1-5,0,2.52,2.52,0,0,1,2.48-2.6Z" transform="translate(-46.78 -143.87)" style="fill:#5fde35;fill-rule:evenodd"/><polygon points="178.83 25.04 179.42 25.04 180.01 25.04 180.49 36.5 179.42 36.5 178.36 36.5 178.83 25.04" style="fill:#5fde35;fill-rule:evenodd"/><path d="M248.88,165.72a2.54,2.54,0,1,1-2.6,2.6,2.6,2.6,0,0,1,2.6-2.6Z" transform="translate(-46.78 -143.87)" style="fill:#3c3;fill-rule:evenodd"/><polygon points="201.51 25.04 202.1 25.04 202.57 25.04 203.17 36.5 202.1 36.5 200.92 36.5 201.51 25.04" style="fill:#3c3;fill-rule:evenodd"/><path d="M211.79,213h0a2.32,2.32,0,0,1,2.24,2.24v4.73a2.24,2.24,0,0,1-2.24,2.24h0a2.26,2.26,0,0,1-2.36-2.24v-4.73a2.34,2.34,0,0,1,2.36-2.24Z" transform="translate(-46.78 -143.87)" style="fill:#a43737;fill-rule:evenodd"/><path d="M262.93,213h0a2.32,2.32,0,0,1,2.25,2.24v4.73a2.24,2.24,0,0,1-2.25,2.24h0a2.26,2.26,0,0,1-2.36-2.24v-4.73a2.34,2.34,0,0,1,2.36-2.24Z" transform="translate(-46.78 -143.87)" style="fill:#a43737;fill-rule:evenodd"/><path d="M211.79,215.21a5.5,5.5,0,0,1,5.43,5.44,5.42,5.42,0,0,1-5.43,5.43,5.35,5.35,0,0,1-5.44-5.43,5.43,5.43,0,0,1,5.44-5.44Z" transform="translate(-46.78 -143.87)" style="fill:#5fde35;fill-rule:evenodd"/><path d="M262.93,215.21a5.5,5.5,0,0,1,5.44,5.44,5.42,5.42,0,0,1-5.44,5.43,5.34,5.34,0,0,1-5.43-5.43,5.42,5.42,0,0,1,5.43-5.44Z" transform="translate(-46.78 -143.87)" style="fill:#3c3;fill-rule:evenodd"/><path d="M262.93,168.91a4.34,4.34,0,0,1,4.26,4.37,4.26,4.26,0,0,1-8.51,0,4.34,4.34,0,0,1,4.25-4.37Z" transform="translate(-46.78 -143.87)" style="fill:#fff;fill-rule:evenodd"/><rect x="155.33" y="132.53" width="3.07" height="11.69" style="fill:#e6e6e6"/><rect x="218.64" y="136.78" width="11.69" height="3.07" style="fill:#e6e6e6"/><path d="M279.83,231.28h1.53a2.88,2.88,0,0,1,2.84,2.83h0a2.88,2.88,0,0,1-2.84,2.84h-1.53a2.88,2.88,0,0,1-2.84-2.84h0a2.88,2.88,0,0,1,2.84-2.83Z" transform="translate(-46.78 -143.87)" style="fill:#fff;fill-rule:evenodd"/><path d="M248.64,231.28h17.6a2.88,2.88,0,0,1,2.84,2.83h0a2.88,2.88,0,0,1-2.84,2.84h-17.6a2.88,2.88,0,0,1-2.83-2.84h0a2.87,2.87,0,0,1,2.83-2.83Z" transform="translate(-46.78 -143.87)" style="fill:#fff;fill-rule:evenodd"/><rect x="223.25" y="154.03" width="5.08" height="4.13" style="fill:#ccc"/><rect x="27.4" y="149.89" width="342.19" height="11.34" style="fill:#993"/><rect x="27.4" y="149.89" width="342.19" height="5.43" style="fill:#aeae33"/><path d="M378.45,282.42c-2.71,3-9,9.45-16.65,11.34C352.23,296,382.12,297,382.12,298c0,.47,2.36.47,5.19.23,2.84.24,5.08.24,5.08-.23,0-1.07,29.89-2,20.32-4.26-7.56-1.89-13.94-8.38-16.54-11.34Z" transform="translate(-46.78 -143.87)" style="fill:#aeae33;fill-rule:evenodd"/><path d="M346.68,287.38c-.94,2-3.42,6.5-6.38,7.8-3.66,1.54,7.92,2.24,7.92,2.95,0,.36.82.36,1.89.12,1.18.24,2,.24,2-.12,0-.71,11.58-1.41,7.92-2.95-2.95-1.3-5.44-5.79-6.38-7.8Z" transform="translate(-46.78 -143.87)" style="fill:#aeae33;fill-rule:evenodd"/><path d="M151.67,287.38c-1.07,2-3.43,6.5-6.38,7.8-3.78,1.54,7.91,2.24,7.91,2.95,0,.36.83.36,1.89.12,1.18.24,2,.24,2-.12,0-.71,11.57-1.41,7.91-2.95-2.95-1.3-5.43-5.79-6.49-7.8Z" transform="translate(-46.78 -143.87)" style="fill:#aeae33;fill-rule:evenodd"/><path d="M103.71,281.83c-1.54,3.07-5.2,9.81-9.69,11.7C88.47,295.89,106,296.83,106,298c0,.47,1.3.47,3,.23,1.65.24,3,.24,3-.23,0-1.19,17.36-2.13,11.81-4.49-4.37-1.89-8-8.63-9.57-11.7Z" transform="translate(-46.78 -143.87)" style="fill:#aeae33;fill-rule:evenodd"/><path d="M92.72,172.81a38.09,38.09,0,1,1,0,53.86,38.08,38.08,0,0,1,0-53.86Z" transform="translate(-46.78 -143.87)" style="fill:#185f64;fill-rule:evenodd"/><path d="M92.72,172.81a38.09,38.09,0,0,1,53.87,53.86Z" transform="translate(-46.78 -143.87)" style="fill:#40797d;fill-rule:evenodd"/><path d="M110.91,172.69a11,11,0,1,1,0,15.59,11.14,11.14,0,0,1,0-15.59Z" transform="translate(-46.78 -143.87)" style="fill:#649296;fill-rule:evenodd"/><path d="M103.12,224.43a4.17,4.17,0,1,1,0,5.9,4.12,4.12,0,0,1,0-5.9Z" transform="translate(-46.78 -143.87)" style="fill:#40797d;fill-rule:evenodd"/><path d="M99.93,171.63a3.06,3.06,0,0,1,4.13,0,2.92,2.92,0,0,1-4.13,4.13,3.08,3.08,0,0,1,0-4.13Z" transform="translate(-46.78 -143.87)" style="fill:#649296;fill-rule:evenodd"/><path d="M139.62,184.62a6.21,6.21,0,0,1,8.86,0,6.43,6.43,0,0,1,0,8.86,6.26,6.26,0,0,1-8.86-8.86Z" transform="translate(-46.78 -143.87)" style="fill:#649296;fill-rule:evenodd"/><rect x="282.07" y="123.55" width="6.26" height="26.34" style="fill:#3f3f25"/><rect x="334.63" y="123.55" width="6.26" height="26.34" style="fill:#3f3f25"/><path d="M314.32,232.46H402.2a3.42,3.42,0,0,1,3.42,3.42v44.89a3.43,3.43,0,0,1-3.42,3.43H314.32a3.44,3.44,0,0,1-3.43-3.43V235.88a3.43,3.43,0,0,1,3.43-3.42Z" transform="translate(-46.78 -143.87)" style="fill:#0cf;fill-rule:evenodd"/><path d="M318.69,234.59h79.14a5.74,5.74,0,0,1,5.67,5.67V276.4a5.75,5.75,0,0,1-5.67,5.67H318.69a5.78,5.78,0,0,1-5.79-5.67V240.26a5.77,5.77,0,0,1,5.79-5.67Z" transform="translate(-46.78 -143.87)" style="fill:#2f9dd6;fill-rule:evenodd"/><path d="M328.73,259.74l1.89-3.42c.59-1.18,1.06-2.36,1.65-3.66h.12c-.12,1.42-.24,3.42-.24,4.84v2.24Zm10.63,0h-2.13V248.29H330.5l-7,11.81v3.78h8.62v4.49h5.08v-4.49h2.13Zm9.33,9c4.49,0,7.56-3.54,7.56-10.51s-3.07-10.4-7.56-10.4-7.44,3.55-7.44,10.4,2.95,10.51,7.44,10.51Zm0-4.13c-1.3,0-2.36-1.07-2.36-6.38s1.06-6.14,2.36-6.14,2.36.82,2.36,6.14-1.06,6.38-2.36,6.38Zm14.41-4.85,1.77-3.42a33.88,33.88,0,0,0,1.65-3.66h.12c0,1.42-.12,3.42-.12,4.84v2.24Zm10.63,0H371.6V248.29h-6.85L357.9,260.1v3.78h8.62v4.49h5.08v-4.49h2.13Zm2.6,5.79a3.19,3.19,0,1,0,3.19-3.3,3.11,3.11,0,0,0-3.19,3.3Zm10.16,0a3.17,3.17,0,0,0,3.19,3.19,3.25,3.25,0,0,0,0-6.49,3.19,3.19,0,0,0-3.19,3.3Z" transform="translate(-46.78 -143.87)" style="fill:#fff"/><text transform="translate(70.56 207.24)" style="font-size:24.888790130615234px;fill:#4d4d4d;font-family:SourceSansPro-Light, Source Sans Pro;font-weight:300;letter-spacing:0.0749842395612436em">Oops... page not found</text></svg>